PathFileType	4	(X/Y/Z)	./resultDataOpenSim/trcMotMarkerGrf/sub10/qtm-02-06.trc
DataRate	CameraRate	NumFrames	NumMarkers	Units	OrigDataRate	OrigDataStartFrame	OrigNumFrames
250.000000	250.000000	8	24	m	250.000000	137	546
Frame#	Time	L.Toe.Tip			R.Toe.Tip			L.Ankle.Lat			R.Ankle.Lat			L.Ankle.Med			R.Ankle.Med			L.Heel			R.Heel			L.Knee.Lat			R.Knee.Lat			L.Knee.Med			R.Knee.Med			L.Thigh.Upper			R.Thigh.Upper			L.ASIS			R.ASIS			V.Sacral			L.Acromium			R.Acromium			C7			L.Elbow			R.Elbow			L.Wrist.Lat			R.Wrist.Lat
		X1	Y1	Z1	X2	Y2	Z2	X3	Y3	Z3	X4	Y4	Z4	X5	Y5	Z5	X6	Y6	Z6	X7	Y7	Z7	X8	Y8	Z8	X9	Y9	Z9	X10	Y10	Z10	X11	Y11	Z11	X12	Y12	Z12	X13	Y13	Z13	X14	Y14	Z14	X15	Y15	Z15	X16	Y16	Z16	X17	Y17	Z17	X18	Y18	Z18	X19	Y19	Z19	X20	Y20	Z20	X21	Y21	Z21	X22	Y22	Z22	X23	Y23	Z23	X24	Y24	Z24

137	0.544	-0.5441296	0.058830429	-0.1171165	-0.73199291	0.039735839	0.023787665	-0.67039937	0.10525843	-0.11209292	-0.87442772	0.053307729	0.055613704	-0.63637525	0.12161032	-0.033345092	-0.85340173	0.081654269	-0.027608872	-0.72803486	0.083426591	-0.049770058	-0.92348685	0.029743513	0.0053611342	-0.56063976	0.47757361	-0.14785439	-0.77520263	0.44475077	0.10515613	-0.53028539	0.4546558	-0.030090401	-0.76642002	0.45094478	-0.024042718	-0.70449484	0.82453275	-0.2081685	-0.74985466	0.8603912	0.1694633	-0.66674775	0.94073916	-0.14176797	-0.67592757	0.9517743	0.10357046	-0.87285116	0.9501122	-0.033055406	-0.72290151	1.4140968	-0.17120818	-0.7569955	1.402356	0.15209644	-0.82252101	1.4393377	-0.019297213	-0.81861989	1.0845274	-0.23213416	-0.80769334	1.0524719	0.21104504	-0.68873554	0.87713011	-0.23865791	-0.63767812	0.87548164	0.24442982
138	0.548	-0.52708512	0.059447789	-0.11569118	-0.73199714	0.039867119	0.023881108	-0.65458239	0.10219445	-0.11046579	-0.87454962	0.053354068	0.05563951	-0.6209515	0.11963459	-0.031772024	-0.85327351	0.081625692	-0.027499611	-0.71102662	0.079055586	-0.047710918	-0.92342693	0.0298437	0.0050416047	-0.55477889	0.47772617	-0.14694414	-0.77373196	0.44441559	0.10532426	-0.52351522	0.45516595	-0.028988749	-0.76476438	0.45060917	-0.023918844	-0.6988612	0.82468702	-0.20803812	-0.74638615	0.85986153	0.16962398	-0.66130254	0.94060293	-0.14126305	-0.67172205	0.95116064	0.10408317	-0.86795217	0.94964451	-0.033534586	-0.71837526	1.4136892	-0.17065722	-0.75247588	1.4020945	0.15265268	-0.81790176	1.4389019	-0.018769258	-0.81516928	1.0846086	-0.23176019	-0.80086219	1.0517608	0.21211529	-0.68707968	0.87635289	-0.23932116	-0.62805339	0.87699944	0.24401378
139	0.552	-0.51011212	0.060192034	-0.11420542	-0.73208097	0.039953112	0.023909154	-0.63871983	0.099268534	-0.1088848	-0.87464912	0.053402112	0.055669604	-0.60555025	0.11777379	-0.030261403	-0.85313654	0.081591503	-0.027400712	-0.69390023	0.074876602	-0.045755302	-0.92333771	0.029924822	0.0047114868	-0.54881541	0.47759706	-0.14596683	-0.77206302	0.44407134	0.10550432	-0.51690258	0.45555474	-0.027957361	-0.76305987	0.45026061	-0.023822441	-0.69311772	0.82478372	-0.20781999	-0.74290473	0.85931958	0.16977371	-0.65608547	0.94038425	-0.14082351	-0.66758133	0.95051334	0.10454242	-0.86295693	0.94916895	-0.033980057	-0.71381412	1.4132265	-0.17012472	-0.74794494	1.4017598	0.15318832	-0.8133351	1.4384286	-0.018423901	-0.81167509	1.0846275	-0.23137468	-0.79408612	1.0510405	0.21318678	-0.68539256	0.87555432	-0.23997366	-0.61849016	0.8785179	0.24356079
140	0.556	-0.49322331	0.061054003	-0.11270133	-0.73218636	0.039989004	0.023912114	-0.62280437	0.09649761	-0.10734854	-0.87469329	0.053439439	0.05565389	-0.59017393	0.11604777	-0.028829222	-0.85303133	0.081572306	-0.02734753	-0.67698191	0.07083446	-0.044031481	-0.92329625	0.029989642	0.0044888273	-0.54264301	0.47723142	-0.14507056	-0.77030221	0.44369385	0.10564316	-0.51056499	0.45582433	-0.027091077	-0.76130618	0.44988976	-0.02375293	-0.68740516	0.8247955	-0.20754889	-0.73941988	0.85877917	0.16991853	-0.65108933	0.94006701	-0.14043703	-0.66342082	0.94984275	0.10497392	-0.85785055	0.94869182	-0.034385194	-0.70921835	1.4127055	-0.16961399	-0.74340366	1.4013482	0.15369859	-0.80889427	1.4379112	-0.018450574	-0.80809128	1.0845828	-0.23091608	-0.78729504	1.0502998	0.21424124	-0.68367014	0.87473613	-0.24062121	-0.60896395	0.88002494	0.24306288
141	0.56	-0.47642749	0.06203621	-0.11119842	-0.73226834	0.039994753	0.023913606	-0.60684567	0.093890221	-0.10586173	-0.87469329	0.053455633	0.055612115	-0.5748444	0.11446243	-0.027479877	-0.85295208	0.081568164	-0.027344618	-0.66027274	0.066927397	-0.042501702	-0.92336172	0.030038318	0.0044943756	-0.53633034	0.47673912	-0.14435019	-0.76850158	0.44327357	0.10573871	-0.50449463	0.45598244	-0.026376981	-0.75950029	0.4494918	-0.023701049	-0.68189112	0.82469045	-0.20728291	-0.73593362	0.8582388	0.17006695	-0.64616546	0.93965574	-0.1400758	-0.6592162	0.94914678	0.10538948	-0.85262226	0.94821978	-0.034743704	-0.70460822	1.4121219	-0.16911877	-0.73883297	1.4008627	0.15418187	-0.80457822	1.4373449	-0.01885159	-0.80452934	1.0844903	-0.2304993	-0.7804118	1.0495118	0.21523479	-0.68191471	0.87389304	-0.24126369	-0.59946006	0.88151468	0.24251786
142	0.564	-0.45973123	0.063152506	-0.10969488	-0.7323205	0.039983633	0.023904798	-0.59085921	0.091458274	-0.10443547	-0.87466471	0.053449778	0.055578714	-0.55959067	0.1130133	-0.026211874	-0.85286592	0.081566563	-0.027380057	-0.64361625	0.063194433	-0.041076625	-0.92349331	0.030082334	0.0046493544	-0.53005842	0.47620033	-0.14374526	-0.766657	0.44281292	0.10581524	-0.49859606	0.4560364	-0.025738893	-0.75763607	0.44907003	-0.023661914	-0.67659105	0.82445899	-0.20705031	-0.73242791	0.85767178	0.17022037	-0.6412098	0.9391655	-0.13972599	-0.6550041	0.94841452	0.10578524	-0.84728699	0.94775866	-0.035053475	-0.70001243	1.4114728	-0.16863774	-0.73421364	1.4003121	0.15464388	-0.80026842	1.4367236	-0.019309792	-0.80115082	1.084367	-0.2302964	-0.77339005	1.0486503	0.21612441	-0.68013664	0.87302098	-0.24189947	-0.58996457	0.88298496	0.24192265
143	0.568	-0.44313634	0.064425761	-0.10817455	-0.73234386	0.039962024	0.023876892	-0.57487704	0.089220887	-0.10308738	-0.87461468	0.053436627	0.055553604	-0.54442613	0.11171006	-0.025018064	-0.85275119	0.081558664	-0.027440207	-0.62695074	0.059685505	-0.039723074	-0.92359768	0.030135356	0.0047670017	-0.52390502	0.47561575	-0.14316852	-0.76472464	0.44231951	0.10589392	-0.49278774	0.45598863	-0.025115145	-0.75570502	0.44863174	-0.023638917	-0.67130615	0.82412517	-0.20683683	-0.72886231	0.85702528	0.1703678	-0.63619109	0.93860668	-0.13938223	-0.65087375	0.94762761	0.10614925	-0.84191156	0.9473108	-0.035322196	-0.69544732	1.4107617	-0.16817544	-0.72954216	1.3997027	0.15509496	-0.79583088	1.4360408	-0.019455885	-0.79799325	1.084214	-0.23034749	-0.76624863	1.0477113	0.21691283	-0.67835603	0.87212382	-0.24253307	-0.5804553	0.88442773	0.2412644
144	0.572	-0.42664374	0.065874084	-0.10661577	-0.73233575	0.03993734	0.023836107	-0.55895848	0.087188656	-0.10182672	-0.87454348	0.053429597	0.055528269	-0.52932598	0.11059409	-0.023868232	-0.85261419	0.081544795	-0.027506348	-0.61032764	0.056447875	-0.038452321	-0.92363544	0.030200773	0.004772594	-0.51781369	0.47494896	-0.1426047	-0.76266634	0.44180978	0.10598362	-0.48703366	0.45583932	-0.024477268	-0.75370171	0.44818247	-0.023635656	-0.66579808	0.82372494	-0.20661235	-0.7251854	0.85623758	0.17049273	-0.63106341	0.93798211	-0.13902289	-0.64691374	0.94676819	0.10647269	-0.83661141	0.94687182	-0.035569158	-0.69089228	1.4099964	-0.16773256	-0.72482903	1.3990299	0.15554248	-0.79123902	1.4352954	-0.019214062	-0.79494553	1.0840214	-0.23052916	-0.75906839	1.0467179	0.21766004	-0.67658313	0.87120488	-0.24316685	-0.57091278	0.88583174	0.24053014
